<svg xmlns="http://www.w3.org/2000/svg" width="32.907" height="29.123" viewBox="0 0 32.907 29.123">
  <path id="box_1_" data-name="box (1)" d="M42.529,31.1s0-.008-.008-.012l-2.089-2.322a.53.53,0,0,0-.394-.176H34.374V18.747a.526.526,0,0,0-.133-.347s0-.005,0-.008l-2-2.228a.53.53,0,0,0-.394-.176H20.57a.53.53,0,0,0-.394.176l-2,2.228s0,.006,0,.008a.526.526,0,0,0-.132.346v9.845H12.371a.53.53,0,0,0-.394.176L9.887,31.09s0,.006-.005.009a.526.526,0,0,0-.131.346V44.581a.531.531,0,0,0,.531.531H42.128a.531.531,0,0,0,.531-.531V31.445A.526.526,0,0,0,42.529,31.1Zm-1.594-.188H36.674l-.709-1.26H39.8ZM32.5,31.975h3.336v2.214l-1.422-.739a.531.531,0,0,0-.49,0l-1.424.739Zm-15.923,0h3.336v2.214l-1.422-.739a.531.531,0,0,0-.49,0l-1.424.739Zm8.052-12.7h3.154v2.068l-1.334-.693a.531.531,0,0,0-.49,0l-1.334.693Zm-1.062,0v2.942a.531.531,0,0,0,.776.471l1.863-.969,1.864.971a.531.531,0,0,0,.774-.473V19.278h4.47V30.82H19.1V19.278ZM34.749,29.653l.708,1.26H34.374v-1.26Zm-2.1-11.437H28.624l-.656-1.166H31.6Zm-5.9-1.166.656,1.166H25l.656-1.166Zm-5.945,0h3.635l-.656,1.166H19.757ZM18.035,30.914H16.952l.709-1.26h.374Zm-5.429-1.26h3.838l-.709,1.26H11.473Zm-1.793,2.322h4.7v3.089a.531.531,0,0,0,.776.471l1.953-1.015L20.2,35.535a.531.531,0,0,0,.776-.471V31.975h4.7V44.05H10.81ZM41.6,44.05H26.735V31.975h4.7v3.089a.531.531,0,0,0,.776.471l1.953-1.015,1.953,1.015a.531.531,0,0,0,.776-.471V31.975h4.7Z" transform="translate(-9.751 -15.988)"/>
</svg>
