<svg xmlns="http://www.w3.org/2000/svg" width="13.258" height="24.41" viewBox="0 0 13.258 24.41">
  <defs>
    <style>
      .cls-1 {
        fill: #404040;
      }
    </style>
  </defs>
  <g id="dollar-tag" transform="translate(-109.301)">
    <g id="Group_4160" data-name="Group 4160" transform="translate(109.301)">
      <g id="Group_4159" data-name="Group 4159" transform="translate(0)">
        <path id="Path_11003" data-name="Path 11003" class="cls-1" d="M122.105,8.269l-3.357-4.244A3.614,3.614,0,0,0,116.443,2.7V.51a.51.51,0,1,0-1.02,0V2.7a3.547,3.547,0,0,0-2.3,1.326l-3.367,4.249A2.126,2.126,0,0,0,109.3,9.58V22.329a2.09,2.09,0,0,0,2.1,2.081h9.055a2.09,2.09,0,0,0,2.107-2.071V9.58A2.151,2.151,0,0,0,122.105,8.269Zm-6.173-.6a1.485,1.485,0,1,1-1.484,1.485A1.483,1.483,0,0,1,115.933,7.672Zm5.612,14.656a1.069,1.069,0,0,1-1.087,1.061h-9.05a1.069,1.069,0,0,1-1.087-1.061V9.58a1.071,1.071,0,0,1,.235-.673l3.362-4.249a2.558,2.558,0,0,1,1.5-.923V6.7a2.506,2.506,0,1,0,1.02,0V3.734a2.578,2.578,0,0,1,.607.2,2.544,2.544,0,0,1,.893.719L121.31,8.9a1.1,1.1,0,0,1,.235.678V22.329Z" transform="translate(-109.301)"/>
      </g>
    </g>
    <g id="Group_4162" data-name="Group 4162" transform="translate(114.227 14.365)">
      <g id="Group_4161" data-name="Group 4161" transform="translate(0)">
        <path id="Path_11004" data-name="Path 11004" class="cls-1" d="M209.2,285.839a1.709,1.709,0,0,0-1.627-1.194.684.684,0,1,1,.684-.684.51.51,0,0,0,1.02,0,1.709,1.709,0,0,0-1.194-1.627v-.224a.51.51,0,0,0-1.02,0v.224a1.7,1.7,0,0,0,.51,3.331.684.684,0,1,1-.684.684.51.51,0,1,0-1.02,0,1.709,1.709,0,0,0,1.194,1.627v.255a.51.51,0,0,0,1.02,0v-.255A1.707,1.707,0,0,0,209.2,285.839Z" transform="translate(-205.871 -281.6)"/>
      </g>
    </g>
  </g>
</svg>
